<svg xmlns="http://www.w3.org/2000/svg" viewBox="0 0 64 64" fill="none">
  <circle cx="32" cy="32" r="32" fill="#EEEAFB" />
  <path d="M24 18c-5 0-9 4-9 9 0 1.5.4 3 1 4.2-1.2 1.3-2 3-2 4.8 0 3.4 2.6 6.2 6 6.4.6 3 3.3 5.3 6.5 5.3 1.6 0 3-.5 4.2-1.4 1.2.9 2.6 1.4 4.2 1.4 3.2 0 5.9-2.3 6.5-5.3 3.4-.2 6-3 6-6.4 0-1.8-.8-3.5-2-4.8.6-1.2 1-2.7 1-4.2 0-5-4-9-9-9-2 0-3.8.6-5.2 1.7C37.6 18.6 35.9 18 34 18c-1.9 0-3.6.6-5 1.6C27.7 18.6 25.9 18 24 18Z" fill="#8B7CF6"/>
  <path d="M32 22v22M26 28c2 1 4 1 6 0M38 36c-2 1-4 1-6 0" stroke="#fff" stroke-width="1.6" stroke-linecap="round" opacity="0.85"/>
</svg>
